# xmcd
#
# Track frame offsets: 
#        150
#        39740
#        61095
#        86060
#        114895
#        135675
#
# Disc length: 2203 seconds
#
# Revision: 5
# Processed by: cddbd v1.5.2PL0 Copyright (c) Steve Scherf et al.
# Submitted via: ExactAudioCopy v1.1
#
DISCID=48089906
DTITLE=Oliver Nelson - Blues And The Abstract Truth
DYEAR=1961
DGENRE=Jazz
TTITLE0=Stolen Moments
TTITLE1=Hoe-down
TTITLE2=Cascades
TTITLE3=Yearnin'
TTITLE4=Butch And Butch
TTITLE5=Teenie's Blues
EXTD=
EXTT0=
EXTT1=
EXTT2=
EXTT3=
EXTT4=
EXTT5=
PLAYORDER=
